<svg xmlns="http://www.w3.org/2000/svg" viewBox="0 0 512 512"><defs><style>.cls-1{fill:#a1a1a1;}</style></defs><title>Ресурс 1</title><g id="Слой_2" data-name="Слой 2"><g id="Capa_1" data-name="Capa 1"><path class="cls-1" d="M292,210H220a10,10,0,0,0-10,10v72a10,10,0,0,0,10,10h72a10,10,0,0,0,10-10V220A10,10,0,0,0,292,210Zm-10,72H230V230h52Z"/><path class="cls-1" d="M478,54a34,34,0,1,0,34,34A34,34,0,0,0,478,54Zm0,48a14,14,0,1,1,14-14A14,14,0,0,1,478,102Z"/><path class="cls-1" d="M426.59,80.9A10,10,0,1,0,429.52,88,10.08,10.08,0,0,0,426.59,80.9Z"/><path class="cls-1" d="M415.53,266a34,34,0,1,0,0-20H354V168a10,10,0,0,0-10-10H328V98h56a10,10,0,0,0,0-20H318a10,10,0,0,0-10,10v70H266V96.47a34,34,0,1,0-20,0V158H168a10,10,0,0,0-10,10v16H98V66.51a34,34,0,1,0-20,0V194a10,10,0,0,0,10,10h70v42H96.47a34,34,0,1,0,0,20H158v78a10,10,0,0,0,10,10h16v60H128a10,10,0,0,0,0,20h66a10,10,0,0,0,10-10V354h42v61.53a34,34,0,1,0,20,0V354h78a10,10,0,0,0,10-10V328h60V445.49a34,34,0,1,0,20,0V318a10,10,0,0,0-10-10H354V266ZM448,242a14,14,0,1,1-14,14A14,14,0,0,1,448,242ZM88,48a14,14,0,1,1,14-14A14,14,0,0,1,88,48ZM64,270a14,14,0,1,1,14-14A14,14,0,0,1,64,270ZM242,64a14,14,0,1,1,14,14A14,14,0,0,1,242,64ZM270,448a14,14,0,1,1-14-14A14,14,0,0,1,270,448Zm64-114H178V178H334Zm90,130a14,14,0,1,1-14,14A14,14,0,0,1,424,464Z"/><path class="cls-1" d="M34,390a34,34,0,1,0,34,34A34,34,0,0,0,34,390Zm0,48a14,14,0,1,1,14-14A14,14,0,0,1,34,438Z"/><path class="cls-1" d="M99.57,417A10,10,0,1,0,102.5,424,10.08,10.08,0,0,0,99.57,417Z"/></g></g></svg>