<svg viewBox="0 0 750 750" xmlns="http://www.w3.org/2000/svg">
<path fill="#a1a1a1" d="M637.5,71.06V0h-25V63.5a88.64,88.64,0,0,0-12.5-1H575V0H550V62.5H512.5V0h-25V62.5H450V0H425V62.5H387.5V0h-25V62.5H325V0H300V62.5H262.5V0h-25V62.5H200V0H175V62.5H150a88.64,88.64,0,0,0-12.5,1V0h-25V71.06A88,88,0,0,0,71.06,112.5H0v25H63.5a88.64,88.64,0,0,0-1,12.5v25H0v25H62.5v37.5H0v25H62.5V300H0v25H62.5v37.5H0v25H62.5V425H0v25H62.5v37.5H0v25H62.5V550H0v25H62.5v25a88.64,88.64,0,0,0,1,12.5H0v25H71.06a88,88,0,0,0,41.44,41.44V750h25V686.5a88.64,88.64,0,0,0,12.5,1h25V750h25V687.5h37.5V750h25V687.5H300V750h25V687.5h37.5V750h25V687.5H425V750h25V687.5h37.5V750h25V687.5H550V750h25V687.5h25a88.64,88.64,0,0,0,12.5-1V750h25V678.94a88,88,0,0,0,41.44-41.44H750v-25H686.5a88.64,88.64,0,0,0,1-12.5V575H750V550H687.5V512.5H750v-25H687.5V450H750V425H687.5V387.5H750v-25H687.5V325H750V300H687.5V262.5H750v-25H687.5V200H750V175H687.5V150a88.64,88.64,0,0,0-1-12.5H750v-25H678.94A88,88,0,0,0,637.5,71.06ZM662.5,600A62.57,62.57,0,0,1,600,662.5H150A62.57,62.57,0,0,1,87.5,600V150A62.57,62.57,0,0,1,150,87.5H600A62.57,62.57,0,0,1,662.5,150Z"/>
<path fill="#a1a1a1" d="M587.5,125h-425A37.5,37.5,0,0,0,125,162.5v425A37.5,37.5,0,0,0,162.5,625h425A37.5,37.5,0,0,0,625,587.5v-425A37.5,37.5,0,0,0,587.5,125ZM600,587.5A12.49,12.49,0,0,1,587.5,600h-425A12.49,12.49,0,0,1,150,587.5v-425A12.49,12.49,0,0,1,162.5,150h425A12.49,12.49,0,0,1,600,162.5Z"/>
<path fill="#a1a1a1" d="m550 175h25v25h-25z"/>
<path fill="#a1a1a1" d="m175 550h25v25h-25z"/>
<path fill="#a1a1a1" d="M175,200v37.5h25V200h37.5V175H200A25,25,0,0,0,175,200Z"/>
<path fill="#a1a1a1" d="M550,550H512.5v25H575V512.5H550Z"/>
</svg>