<svg viewBox="0 0 409.59 512" xmlns="http://www.w3.org/2000/svg">
	<path fill="#a1a1a1" d="M366.9,512H42.69A42.75,42.75,0,0,1,0,469.3V42.7A42.75,42.75,0,0,1,42.69,0H366.9a42.75,42.75,0,0,1,42.69,42.7V469.3A42.74,42.74,0,0,1,366.9,512ZM42.69,17.07A25.65,25.65,0,0,0,17.07,42.7V469.3a25.66,25.66,0,0,0,25.62,25.63H366.9a25.65,25.65,0,0,0,25.62-25.63V42.7A25.65,25.65,0,0,0,366.9,17.07Z"/>
	<path fill="#a1a1a1" d="m204.8 290.13a76.8 76.8 0 1 1 76.8-76.8 76.89 76.89 0 0 1-76.8 76.8zm0-136.53a59.74 59.74 0 1 0 59.73 59.73 59.8 59.8 0 0 0-59.73-59.73z"/>
	<path fill="#a1a1a1" d="m204.8 247.47a34.14 34.14 0 1 1 34.13-34.14 34.17 34.17 0 0 1-34.13 34.14zm0-51.2a17.07 17.07 0 1 0 17.07 17.06 17.08 17.08 0 0 0-17.07-17.06z"/>
	<path fill="#a1a1a1" d="m121.17 435.2a44.37 44.37 0 0 1-17.06-85.33l80.35-33.48a8.53 8.53 0 0 1 11.15 11.16l-33.48 80.34a44.26 44.26 0 0 1-40.96 27.31zm50.72-95.09-61.22 25.5a27.31 27.31 0 1 0 35.71 35.7z"/>
	<path fill="#a1a1a1" d="M170.67,512h-128A42.75,42.75,0,0,1,0,469.3V384a8.52,8.52,0,0,1,8.53-8.53H51.2A8.52,8.52,0,0,1,59.73,384,68.35,68.35,0,0,0,128,452.27h42.67a8.52,8.52,0,0,1,8.53,8.53v42.67A8.52,8.52,0,0,1,170.67,512ZM17.07,392.53V469.3a25.66,25.66,0,0,0,25.62,25.63H162.13v-25.6H128a85.46,85.46,0,0,1-84.91-76.8Z"/>
	<path fill="#a1a1a1" d="M204.8,384a172.2,172.2,0,0,1-38.53-4.52,8.54,8.54,0,0,1-6-11.61l11.56-27.76-47.47,19.77a8.52,8.52,0,0,1-7.7-.57c-51.72-31.26-82.58-85.84-82.58-146,0-94.1,76.56-170.66,170.67-170.66s170.67,76.56,170.67,170.66S298.91,384,204.8,384Zm-24.73-19.17a149.85,149.85,0,0,0,24.72,2.1c84.69,0,153.6-68.9,153.6-153.6s-68.91-153.6-153.6-153.6-153.6,68.91-153.6,153.6A152.37,152.37,0,0,0,121.9,342.45l62.55-26.06a8.53,8.53,0,0,1,11.15,11.16Z"/>
</svg>		