<svg viewBox="0 0 511.85 511.85" xmlns="http://www.w3.org/2000/svg">
	<path fill="#a1a1a1" d="M509.35,159.38l-24.12-24.12v0h0l-18.09-18.1a8.52,8.52,0,0,0-12.06,0A8.53,8.53,0,0,1,443,105.07,8.52,8.52,0,0,0,443,93L418.84,68.87a8.52,8.52,0,0,0-12.06,0,8.82,8.82,0,0,1-12.08,0,8.56,8.56,0,0,1,0-12.07,8.52,8.52,0,0,0,0-12.06L352.47,2.5a8.53,8.53,0,0,0-12.07,0L2.5,340.4a8.53,8.53,0,0,0,0,12.07L44.74,394.7a8.52,8.52,0,0,0,12.06,0,8.53,8.53,0,0,1,12.07,12.07,8.53,8.53,0,0,0,0,12.07L93,443a8.52,8.52,0,0,0,12.06,0,8.81,8.81,0,0,1,12.07,0,8.53,8.53,0,0,1,0,12.06,8.53,8.53,0,0,0,0,12.07l18.1,18.09h0l24.12,24.13a8.53,8.53,0,0,0,12.07,0l337.9-337.9a8.53,8.53,0,0,0,0-12.07ZM134.21,460.05a25.61,25.61,0,0,0-34.14-34.14L85.94,411.77A25.6,25.6,0,0,0,51.8,377.64L20.6,346.43,346.43,20.6l31.21,31.2a25.61,25.61,0,0,0,34.14,34.14l14.13,14.14a25.6,25.6,0,0,0,34.14,34.13l7.07,7.07L141.28,467.11Zm31.21,31.2-12.07-12.07,12.07-12.07,12.06,12.07Zm24.13-24.13-12.07-12.07L455.05,177.48l12.07,12.07ZM479.18,177.48l-12.07-12.06,12.07-12.07,12.07,12.07Z"></path>
	<path fill="#a1a1a1" d="m62.81 340.4a8.37 8.37 0 0 0-12 0 8.49 8.49 0 0 0-2.47 6.06 8.29 8.29 0 0 0 2.47 6 8.54 8.54 0 0 0 6.03 2.54 8.34 8.34 0 0 0 6-2.56 7.39 7.39 0 0 0 1.88-2.74 8.56 8.56 0 0 0 0.69-3.24 9.53 9.53 0 0 0-0.69-3.33 7.35 7.35 0 0 0-1.91-2.73z"></path>
	<path fill="#a1a1a1" d="m346.46 65.38a8.76 8.76 0 0 0 8.54-8.54 8.54 8.54 0 0 0-2.56-6.06 8.75 8.75 0 0 0-12 0 8.49 8.49 0 0 0-2.47 6.06 8.25 8.25 0 0 0 2.47 6 8.55 8.55 0 0 0 6.02 2.54z"></path>
	<path fill="#a1a1a1" d="M129.21,322.3a17.08,17.08,0,0,0-24.14,0L87,340.4a17.1,17.1,0,0,0,0,24.14l48.28,48.27a17.06,17.06,0,0,0,24.13,0l18.1-18.11a17.06,17.06,0,0,0,0-24.13Zm36.21,60.33h0l-18.11,18.1L99,352.47l18.11-18.1,48.28,48.25Z"></path>
	<path fill="#a1a1a1" d="m183.51 268a17.09 17.09 0 0 0-24.13 0l-18.1 18.11a17.09 17.09 0 0 0 0 24.13l48.27 48.27a17.08 17.08 0 0 0 24.14 0l18.1-18.1a17.06 17.06 0 0 0 0-24.13zm18.11 78.44-48.27-48.27 18.1-18.1 48.28 48.27z"></path>
	<path fill="#a1a1a1" d="M237.82,213.69a17.46,17.46,0,0,0-24.13,0l-18.1,18.1a17.07,17.07,0,0,0,0,24.14l48.27,48.27a17.09,17.09,0,0,0,24.13,0l18.11-18.1h0a17.1,17.1,0,0,0,0-24.13Zm18.11,78.44-48.28-48.27,18.1-18.11L274,274Z"></path>
	<path fill="#a1a1a1" d="m364.54 87a17.1 17.1 0 0 0-24.14 0l-90.51 90.51a17.07 17.07 0 0 0 0 24.14l48.28 48.28a17.1 17.1 0 0 0 24.13 0l90.51-90.51a17.07 17.07 0 0 0 0-24.14zm36.21 60.34-12.07 12.07-6-6a8.53 8.53 0 0 0-12.07 12.07l6 6-12.06 12.07-6-6a8.53 8.53 0 0 0-12.07 12.07l6 6-12.08 12.04-6-6a8.53 8.53 0 0 0-12.07 12.07l6 6-18.1 18.11-48.23-48.29 90.47-90.55 48.28 48.26z"></path>
	<path fill="#a1a1a1" d="m322.3 153.35-24.14 24.13a8.53 8.53 0 0 0 12.07 12.07l24.14-24.13a8.53 8.53 0 1 0-12.07-12.07z"></path>
	<path fill="#a1a1a1" d="M343.9,135.26a8.6,8.6,0,0,0,8.54,8.53,9,9,0,0,0,6.06-2.47,8.57,8.57,0,0,0,2.47-6.06,9,9,0,0,0-.6-3.33,8.58,8.58,0,0,0-16.47,3.33Z"></path>
</svg>